<?xml version="1.0" encoding="UTF-8"?>
<svg width="1200pt" height="1200pt" version="1.1" viewBox="0 0 1200 1200" xmlns="http://www.w3.org/2000/svg">
 <path d="m600 381.24c-24.141 0-43.734 19.594-43.734 43.734 0 24.188 19.594 43.781 43.734 43.781s43.734-19.594 43.734-43.734c0-24.188-19.594-43.781-43.734-43.781z"/>
 <path d="m600 812.48c-20.719 0-37.5-16.781-37.5-37.5v-231.98c0-20.719 16.781-37.5 37.5-37.5s37.5 16.781 37.5 37.5v231.98c0 20.719-16.781 37.5-37.5 37.5z"/>
 <path d="m600 987.52c-213.66 0-387.52-173.81-387.52-387.52 0-83.016 25.875-162.19 74.859-228.94 12.141-16.688 35.578-20.344 52.406-8.0625 16.688 12.234 20.297 35.766 8.0625 52.453-39.469 53.766-60.328 117.61-60.328 184.55 0 172.31 140.21 312.52 312.52 312.52 83.156 0 161.39-32.297 220.31-90.938 14.719-14.578 38.391-14.531 53.062 0.14062 14.578 14.719 14.484 38.438-0.14062 53.062-73.078 72.703-170.11 112.73-273.24 112.73z"/>
 <path d="m913.13 793.97c-5.625 0-11.344-1.2656-16.688-3.9375-18.562-9.2812-26.062-31.781-16.781-50.297 6.2812-12.609 11.766-25.641 16.359-39.094 6.6094-19.641 27.938-30.141 47.578-23.438 19.641 6.6562 30.141 27.938 23.438 47.578-5.5781 16.453-12.422 32.812-20.25 48.469-6.6562 13.125-19.875 20.719-33.656 20.719z"/>
 <path d="m950.02 637.5c-20.719 0-37.5-16.781-37.5-37.5 0-172.31-140.21-312.52-312.52-312.52-59.766 0-117.89 16.922-168 48.938-17.531 11.203-40.688 6-51.797-11.391-11.156-17.484-6.0469-40.641 11.438-51.797 62.156-39.75 134.26-60.75 208.36-60.75 213.66 0 387.52 173.81 387.52 387.52 0 20.719-16.828 37.5-37.5 37.5z"/>
</svg>
