<?xml version="1.0" encoding="UTF-8"?>
<svg width="1200pt" height="1200pt" version="1.1" viewBox="0 0 1200 1200" xmlns="http://www.w3.org/2000/svg">
 <path d="m617.14 551.66v-200.23h-34.285v200.23c-19.887 7.0312-34.289 26.059-34.289 48.344 0 7.8867 1.8867 15.43 4.9727 22.113l-128.57 128.57 24.344 24.344 128.57-128.57c6.6836 3.0859 14.227 4.9727 22.113 4.9727 28.285 0 51.43-22.973 51.43-51.43 0-22.285-14.402-41.312-34.285-48.344z"/>
 <path d="m600 51.43c-302.57 0-548.57 246.17-548.57 548.57 0 302.57 246 548.57 548.57 548.57 302.4 0 548.57-246 548.57-548.57 0-302.4-246.17-548.57-548.57-548.57zm328.71 849.28-77.988-77.988-25.879 25.879 78.039 78.039c-75.387 69.953-174.91 114.16-284.58 118.61v-111.1l-36.605-0.003906v111.1c-109.67-4.4531-209.19-48.66-284.58-118.61l78.039-78.039-25.879-25.879-77.988 77.992c-69.223-75.605-112.67-175.1-116.6-284.54h109.02v-36.602l-108.91-0.003906c4.9336-108.84 49.059-207.56 118.56-282.46l75.918 75.918 25.879-25.879-75.867-75.867c75.117-68.77 173.8-112.12 282.4-116.54v106.85h36.602l-0.003906-106.85c108.6 4.4102 207.29 47.766 282.41 116.54l-75.867 75.867 25.879 25.879 75.914-75.914c69.5 74.902 113.62 173.62 118.56 282.46h-108.92v36.602h109.03c-3.9258 109.43-47.371 208.92-116.59 284.53z"/>
</svg>
