<?xml version="1.0" encoding="UTF-8"?>
<svg width="1200pt" height="1200pt" version="1.1" viewBox="0 0 1200 1200" xmlns="http://www.w3.org/2000/svg">
 <path d="m273.25 39.785h653.52c128.43 0 233.46 105.04 233.46 233.46v653.52c0 128.43-105.04 233.46-233.46 233.46h-653.52c-128.43 0-233.46-105.04-233.46-233.46v-653.52c0-128.43 105.04-233.46 233.46-233.46zm350.36 276.89v304.14l238.1 184.52-60.238 77.98-276.69-214.43v-352.22h98.832zm-23.598-136.84c232.06 0 420.18 188.12 420.18 420.17s-188.12 420.17-420.18 420.17c-232.05 0-420.17-188.12-420.17-420.17s188.12-420.17 420.17-420.17z" fill-rule="evenodd"/>
</svg>
