<?xml version="1.0" encoding="UTF-8"?>
<svg width="1200pt" height="1200pt" version="1.1" viewBox="0 0 1200 1200" xmlns="http://www.w3.org/2000/svg">
 <path d="m794.28 216h-388.56c-50.301 0.046875-98.531 20.051-134.1 55.621-35.57 35.566-55.574 83.797-55.621 134.1v388.56c0.046875 50.301 20.051 98.531 55.621 134.1 35.566 35.57 83.797 55.574 134.1 55.621h388.56c50.297-0.066406 98.512-20.078 134.08-55.641 35.562-35.566 55.574-83.781 55.641-134.08v-388.56c-0.066406-50.297-20.078-98.512-55.641-134.08-35.566-35.562-83.781-55.574-134.08-55.641zm-3.9609 242.4c-12.938-0.015626-25.34-5.168-34.477-14.328-9.1367-9.1602-14.258-21.574-14.242-34.512 0.015626-12.938 5.168-25.336 14.328-34.473 9.1602-9.1367 21.574-14.262 34.512-14.246s25.336 5.1719 34.473 14.328c9.1367 9.1602 14.262 21.574 14.246 34.512s-5.1719 25.34-14.328 34.477c-9.1602 9.1367-21.574 14.258-34.512 14.242zm-190.32-41.277c48.504 0 95.02 19.266 129.32 53.562s53.562 80.812 53.562 129.32-19.266 95.02-53.562 129.32-80.812 53.562-129.32 53.562-95.02-19.266-129.32-53.562-53.562-80.812-53.562-129.32c0.070312-48.48 19.359-94.957 53.641-129.24s80.758-53.57 129.24-53.641z"/>
 <path d="m600 710.04c29.184 0 57.172-11.594 77.809-32.23 20.637-20.637 32.23-48.625 32.23-77.809s-11.594-57.172-32.23-77.809c-20.637-20.637-48.625-32.23-77.809-32.23s-57.172 11.594-77.809 32.23c-20.637 20.637-32.23 48.625-32.23 77.809 0.03125 29.176 11.633 57.145 32.266 77.773 20.629 20.633 48.598 32.234 77.773 32.266z"/>
</svg>
