<svg class="{{ svgSize }} {{ svgColor }}" fill="currentColor" width="1200pt" height="1200pt" version="1.1" viewBox="0 0 1200 1200" xmlns="http://www.w3.org/2000/svg">
 <path d="m1164.7 1181.2h-564.71c-327.05 0-592.92-261.19-592.92-583.55 0-322.31 265.87-578.76 592.92-578.76 327.05 0 592.92 261.19 592.92 583.55v550.55c0 16.453-11.766 28.219-28.219 28.219zm-564.71-1105.9c-294.14 0-534.14 235.31-534.14 524.72 0 289.41 240 524.72 534.14 524.72h534.14v-524.72c0-289.4-240-524.72-534.14-524.72z"/>
 <path d="m600 717.66c-16.453 0-28.219-14.109-28.219-28.219v-23.531c0-35.297 23.531-65.859 56.484-75.281 42.375-11.766 70.594-49.406 70.594-94.125 0-25.875-9.4219-49.406-28.219-68.25-18.844-18.844-42.375-28.219-68.25-28.219-54.141 0-96.469 44.719-96.469 96.469 0 16.453-14.109 28.219-28.219 28.219s-28.219-14.109-28.219-28.219c0-87.047 70.594-155.29 155.29-155.29 42.375 0 82.359 16.453 110.58 47.062 30.609 30.609 44.719 68.25 44.719 110.58 0 70.594-47.062 131.76-112.92 150.61-7.0781 2.3438-14.109 9.4219-14.109 18.844v23.531c-2.4375 14.062-16.594 25.828-33.047 25.828z"/>
 <path d="m600 858.84c-7.0781 0-16.453-2.3438-21.188-9.4219-4.6875-4.6875-9.4219-11.766-9.4219-21.188s2.3438-14.109 9.4219-21.188c11.766-11.766 30.609-11.766 42.375 0 4.6875 4.6875 9.4219 11.766 9.4219 21.188s-2.3438 14.109-9.4219 21.188c0 2.3438-2.3438 2.3438-4.6875 4.6875-2.3438 0-2.3438 2.3438-4.6875 2.3438s-4.6875 2.3438-4.6875 2.3438c-2.4375 0.046875-4.7812 0.046875-7.125 0.046875z"/>
</svg>
