<svg class="{{ svgSize }} {{ svgColor }}" fill="currentColor" width="1200pt" height="1200pt" version="1.1" viewBox="0 0 1200 1200" xmlns="http://www.w3.org/2000/svg">
 <path d="m586.44 508.23c0-135.31-109.68-245-245-245s-233.54 105.91-245 240.74c-17.496 205.74 138.8 378 328.56 432.8-64.68-39.109-109.8-107.12-117.32-186.23 11.074 1.5703 22.285 2.6875 33.77 2.6875 135.32 0 245-109.68 245-245z"/>
 <path d="m1104 508.23c0-135.31-109.68-245-245.02-245-135.31 0-233.54 105.91-245.02 240.74-17.496 205.74 138.8 378 328.57 432.8-64.68-39.109-109.79-107.12-117.32-186.23 11.074 1.5703 22.297 2.6875 33.77 2.6875 135.34 0 245.02-109.68 245.02-245z"/>
</svg>
