<svg class="{{ svgSize }} {{ svgColor }}" fill="currentColor" width="1200pt" height="1200pt" version="1.1" viewBox="0 0 1200 1200" xmlns="http://www.w3.org/2000/svg">
 <path d="m1102.8 418.46-447.56-258.4c-27.043-15.664-54.785-17.461-76.016-5.2344-21.277 12.266-33.465 37.199-33.465 68.426v71.551c-137.42 4.6172-248.93 52.305-331.11 142.97-192.38 212.43-158.2 580-156.66 595.55 1.0938 10.918 10.047 19.355 20.996 19.863h0.94922c10.566 0 19.715-7.4805 21.672-17.949 0.69531-3.5469 71.18-349.11 444.15-354.33v62.297c0 29.805 11.848 53.738 32.48 65.672 9.2383 5.3008 19.727 7.9688 30.898 7.9688 14.648 0 30.449-4.5586 46.105-13.621l447.56-258.38c27.031-15.605 42.539-38.641 42.539-63.195-0.003906-24.527-15.512-47.582-42.543-63.188zm-22.051 88.234-447.58 258.39c-13.352 7.668-25.695 9.7266-32.883 5.5859-6.6328-3.8281-10.43-13.859-10.43-27.461v-85.117c0-1.3789 1.1523-19.961-21.672-22.043-0.11719-0.019531-0.22656 0-0.35938 0h-0.019531-0.046875c-278.05-5.7031-409.57 159.23-467.71 276.35 4.7656-123.54 32.117-317.97 147.4-445.13 77.766-85.762 185.4-129.26 319.97-129.26 0.14453 0 0.48047 0.078125 0.38281 0 12.199 0 22.051-9.8633 22.051-22.059v-92.695c0-15.027 4.1602-26.035 11.426-30.227 7.1875-4.2188 18.836-2.2266 31.887 5.2031l447.57 258.41c13.027 7.5391 20.48 16.621 20.48 25.02 0 8.4062-7.4531 17.496-20.48 25.039z"/>
 <path d="m992.74 435.1-298.92-172.59c-42.02-24.258-76.395-13.484-76.395 23.934v68.105 18.664c-395.28-22.336-464.33 375.98-464.33 375.98s167.93-174.97 464.33-147.23v74.035c0 35.203 34.375 44.148 76.395 19.902l298.93-172.59c42.02-24.266 42.02-63.969-0.003906-88.219z"/>
</svg>
